{
  "accessors": [
    {
      "bufferView": 2,
      "componentType": 5126,
      "count": 404,
      "max": [
        0.022958729416131973,
        0.08552538603544235,
        0.25861263275146484
      ],
      "min": [
        -0.013463574461638927,
        -0.08552538603544235,
        -0.6116993427276611
      ],
      "type": "VEC3"
    },
    {
      "bufferView": 2,
      "byteOffset": 4848,
      "componentType": 5126,
      "count": 404,
      "max": [
        1.0,
        1.0,
        1.0
      ],
      "min": [
        -1.0,
        -1.0,
        -1.0
      ],
      "type": "VEC3"
    },
    {
      "bufferView": 1,
      "componentType": 5126,
      "count": 404,
      "max": [
        0.9054765105247498,
        1.0
      ],
      "min": [
        0.008991152048110962,
        -1.2601844900927972e-07
      ],
      "type": "VEC2"
    },
    {
      "bufferView": 0,
      "componentType": 5125,
      "count": 630,
      "type": "SCALAR"
    }
  ],
  "asset": {
    "extras": {
      "author": "wasabicats (https://sketchfab.com/wasabicats)",
      "license": "CC-BY-4.0 (http://creativecommons.org/licenses/by/4.0/)",
      "source": "https://sketchfab.com/3d-models/shovel-low-poly-a98dd0162e31429b9251c93e38f68998",
      "title": "Shovel (Low Poly)"
    },
    "generator": "Sketchfab-16.75.0",
    "version": "2.0"
  },
  "bufferViews": [
    {
      "buffer": 0,
      "byteLength": 2520,
      "name": "floatBufferViews",
      "target": 34963
    },
    {
      "buffer": 0,
      "byteLength": 3232,
      "byteOffset": 2520,
      "byteStride": 8,
      "name": "floatBufferViews",
      "target": 34962
    },
    {
      "buffer": 0,
      "byteLength": 9696,
      "byteOffset": 5752,
      "byteStride": 12,
      "name": "floatBufferViews",
      "target": 34962
    }
  ],
  "buffers": [
    {
      "byteLength": 15448,
      "uri": "scene.bin"
    }
  ],
  "images": [
    {
      "uri": "textures/Shovel_baseColor.png"
    }
  ],
  "materials": [
    {
      "doubleSided": true,
      "name": "Shovel",
      "pbrMetallicRoughness": {
        "baseColorTexture": {
          "index": 0
        },
        "metallicFactor": 0.0,
        "roughnessFactor": 0.8211145618000169
      }
    }
  ],
  "meshes": [
    {
      "name": "Shovel_Shovel_0",
      "primitives": [
        {
          "attributes": {
            "NORMAL": 1,
            "POSITION": 0,
            "TEXCOORD_0": 2
          },
          "indices": 3,
          "material": 0,
          "mode": 4
        }
      ]
    }
  ],
  "nodes": [
    {
      "children": [
        1
      ],
      "matrix": [
        2.220446049250313e-16,
        1.0,
        2.220446049250313e-16,
        0.0,
        0.0,
        2.220446049250313e-16,
        -1.0,
        0.0,
        -1.0,
        2.220446049250313e-16,
        4.930380657631324e-32,
        0.0,
        0.0,
        0.0,
        0.0,
        1.0
      ],
      "name": "Sketchfab_model"
    },
    {
      "children": [
        2
      ],
      "matrix": [
        0.009999999776482582,
        0.0,
        0.0,
        0.0,
        0.0,
        0.0,
        0.009999999776482582,
        0.0,
        0.0,
        -0.009999999776482582,
        0.0,
        0.0,
        0.0,
        0.0,
        0.0,
        1.0
      ],
      "name": "a2f67941295e44249aa00ed772419930.fbx"
    },
    {
      "children": [
        3,
        5
      ],
      "name": "RootNode"
    },
    {
      "children": [
        4
      ],
      "matrix": [
        7.549789948768648e-06,
        0.0,
        99.99999999999972,
        0.0,
        96.76234912202776,
        -25.23980571214368,
        -7.305354110531681e-06,
        0.0,
        25.239805712143614,
        96.76234912202804,
        -1.9055523159394738e-06,
        0.0,
        4.9057841300964355,
        17.386072158813477,
        -1.3333022594451904,
        1.0
      ],
      "name": "Shovel"
    },
    {
      "mesh": 0,
      "name": "Shovel_Shovel_0"
    },
    {
      "children": [
        6
      ],
      "matrix": [
        1.9091893133094118e-05,
        -98.05438243514715,
        19.630030190031363,
        0.0,
        2.7569539862160042e-05,
        19.63003019003613,
        98.05438243514418,
        0.0,
        -99.99999999999439,
        -1.330852891778811e-05,
        3.0780886439707444e-05,
        0.0,
        0.07632970809936523,
        23.736326217651367,
        115.2201919555664,
        1.0
      ],
      "name": "Spot"
    },
    {
      "children": [
        7
      ],
      "matrix": [
        1.0,
        0.0,
        0.0,
        0.0,
        0.0,
        2.220446049250313e-16,
        1.0,
        0.0,
        0.0,
        -1.0,
        2.220446049250313e-16,
        0.0,
        0.0,
        0.0,
        0.0,
        1.0
      ],
      "name": "Object_6"
    },
    {
      "name": "Object_7"
    }
  ],
  "samplers": [
    {
      "magFilter": 9729,
      "minFilter": 9987,
      "wrapS": 10497,
      "wrapT": 10497
    }
  ],
  "scene": 0,
  "scenes": [
    {
      "name": "Sketchfab_Scene",
      "nodes": [
        0
      ]
    }
  ],
  "textures": [
    {
      "sampler": 0,
      "source": 0
    }
  ]
}
